<svg width="34" height="34" viewBox="0 0 34 34" fill="none" xmlns="http://www.w3.org/2000/svg">
<path d="M19.8333 2.83325H8.49996C7.74851 2.83325 7.02784 3.13176 6.49649 3.66312C5.96514 4.19447 5.66663 4.91514 5.66663 5.66659V28.3333C5.66663 29.0847 5.96514 29.8054 6.49649 30.3367C7.02784 30.8681 7.74851 31.1666 8.49996 31.1666H25.5C26.2514 31.1666 26.9721 30.8681 27.5034 30.3367C28.0348 29.8054 28.3333 29.0847 28.3333 28.3333V11.3333L19.8333 2.83325Z" stroke="#D19130" stroke-width="2.83333" stroke-linecap="round" stroke-linejoin="round"/>
<path d="M19.8334 2.83325V11.3333H28.3334" stroke="#D19130" stroke-width="2.83333" stroke-linecap="round" stroke-linejoin="round"/>
<path d="M22.6667 18.4167H11.3334" stroke="#D19130" stroke-width="2.83333" stroke-linecap="round" stroke-linejoin="round"/>
<path d="M22.6667 24.0833H11.3334" stroke="#D19130" stroke-width="2.83333" stroke-linecap="round" stroke-linejoin="round"/>
<path d="M14.1667 12.75H12.75H11.3334" stroke="#D19130" stroke-width="2.83333" stroke-linecap="round" stroke-linejoin="round"/>
</svg>
