<svg width="40" height="40" viewBox="0 0 40 40" fill="none" xmlns="http://www.w3.org/2000/svg">
<path fill-rule="evenodd" clip-rule="evenodd" d="M6.31802 4.31802C7.16193 3.47411 8.30653 3 9.5 3H21.5C21.8978 3 22.2794 3.15804 22.5607 3.43934L31.5607 12.4393C31.842 12.7206 32 13.1022 32 13.5V21C32 21.8284 31.3284 22.5 30.5 22.5C29.6716 22.5 29 21.8284 29 21V14.1213L20.8787 6H9.5C9.10217 6 8.72064 6.15804 8.43934 6.43934C8.15803 6.72064 8 7.10217 8 7.5V31.5C8 31.8978 8.15803 32.2794 8.43934 32.5607C8.72064 32.842 9.10218 33 9.5 33H17.5C18.3284 33 19 33.6716 19 34.5C19 35.3284 18.3284 36 17.5 36H9.5C8.30652 36 7.16193 35.5259 6.31802 34.682C5.47411 33.8381 5 32.6935 5 31.5V7.5C5 6.30653 5.47411 5.16193 6.31802 4.31802Z" fill="#D19130"/>
<path d="M24.5 28L31 34.5" stroke="#D19130" stroke-width="3.33333" stroke-linecap="round"/>
<path d="M31 28L24.5 34.5" stroke="#D19130" stroke-width="3.33333" stroke-linecap="round"/>
<path fill-rule="evenodd" clip-rule="evenodd" d="M11 21.4655C11 20.6561 11.6973 20 12.5576 20H20.8645C21.7248 20 22.4221 20.6561 22.4221 21.4655C22.4221 22.2749 21.7248 22.931 20.8645 22.931H12.5576C11.6973 22.931 11 22.2749 11 21.4655Z" fill="#D19130"/>
<path fill-rule="evenodd" clip-rule="evenodd" d="M11 27.5C11 26.6716 11.7111 26 12.5882 26H18.4118C19.2889 26 20 26.6716 20 27.5C20 28.3284 19.2889 29 18.4118 29H12.5882C11.7111 29 11 28.3284 11 27.5Z" fill="#D19130"/>
<path fill-rule="evenodd" clip-rule="evenodd" d="M11 15.5C11 14.6716 11.6716 14 12.5 14H23.5C24.3284 14 25 14.6716 25 15.5C25 16.3284 24.3284 17 23.5 17H12.5C11.6716 17 11 16.3284 11 15.5Z" fill="#D19130"/>
</svg>
