<svg width="40" height="40" viewBox="0 0 40 40" fill="none" xmlns="http://www.w3.org/2000/svg">
<path d="M23.9384 30.8334C17.2717 34.1667 8.10486 31.6667 9.77159 24.1667C9.95237 23.3532 11.8187 21.1411 11.4384 20C10.605 17.5 10.4873 16.0597 10.605 15C11.4382 7.50002 15.72 4.16669 23.105 4.16669C35.7892 4.16669 38.105 18.3333 33.105 23.3333C30.605 25.8333 25.9383 30.8333 30.605 37.5" stroke="#D19130" stroke-width="3.33333" stroke-linecap="round"/>
<path d="M16.2716 5.5C12.2716 9 5.99536 6.69687 5.27143 8C2.77155 12.5 18.2715 17.5 21.7715 13" stroke="#D19130" stroke-width="3.33" stroke-linecap="round"/>
<path d="M24.7716 18.3334C25.6049 17.5 27.2716 18.6667 27.2716 20C27.2716 22.5 25.6049 23.3334 23.9382 23.3334" stroke="#D19130" stroke-width="3.33333" stroke-linecap="round"/>
<path d="M18.9381 32.5C19.7714 34.1667 18.7714 36.8333 18.1047 37.5" stroke="#D19130" stroke-width="3.33333" stroke-linecap="round"/>
</svg>
