<svg  viewBox="0 0 235 36" fill="none" xmlns="http://www.w3.org/2000/svg">
<g clip-path="url(#clip0)">
<path d="M11.5402 24.4002H24.2784V11.5978H11.5402V24.4002Z" fill="#FFC300"/>
<path d="M35.8171 36H0V11.9102H7.17385V28.7908H35.8171V36Z" fill="#D19130"/>
<path d="M35.8171 17.9986H28.6443V7.20919H9.66357V0H35.8171V17.9986Z" fill="#FEFEFE"/>
<path d="M51.4371 5.07436V15.714H53.5847V11.1083H57.8797V15.714H60.0272V5.07436H57.8797V9.36072H53.5847V5.07436H51.4371ZM65.532 5.07436L61.3126 15.714H63.6112L64.5032 13.3127H68.8739L69.7664 15.714H72.1864L67.9819 5.07436H65.532ZM65.184 11.5646L66.6508 7.2178H66.6811L68.2389 11.5646H65.184ZM73.4712 5.07436V15.714H75.6188V11.7165H76.9951C79.702 11.7165 80.6701 9.80149 80.6701 8.40266C80.6701 7.73401 80.4434 5.07382 76.6023 5.07382L73.4712 5.07436ZM75.6188 10.0444V6.746H76.6023C77.8424 6.746 78.4018 7.46066 78.4018 8.34222C78.4018 9.14782 77.9025 10.0449 76.6023 10.0449L75.6188 10.0444ZM86.5985 4.95239C83.9821 4.95239 81.4115 6.5331 81.4115 10.3942C81.4115 14.2553 83.9827 15.836 86.5985 15.836C89.2144 15.836 91.7856 14.2553 91.7856 10.3942C91.7856 6.5331 89.2144 4.95239 86.5985 4.95239ZM86.5985 6.47212C87.4001 6.47212 89.5173 6.79147 89.5173 10.3942C89.5173 13.9964 87.4001 14.3157 86.5985 14.3157C85.797 14.3157 83.6798 13.9964 83.6798 10.3942C83.6798 6.792 85.797 6.47212 86.5985 6.47212ZM92.1486 13.8289V17.9479H94.2658V15.7135H100.633V17.9479H102.75V13.8289H101.54V5.07382H94.6442V8.47862C94.6442 10.4241 94.4329 12.0049 93.3589 13.8289H92.1486ZM99.3927 6.95836V13.8289H95.5969C96.565 12.1113 96.6858 10.5766 96.6858 8.47862V6.95836H99.3927ZM104.111 5.07382V15.7135H106.258V11.1078H110.553V15.7135H112.701V5.07382H110.553V9.36018H106.258V5.07382H104.111ZM118.205 5.07382L113.986 15.7135H116.285L117.177 13.3122H121.548L122.44 15.7135H124.86L120.656 5.07382H118.205ZM117.858 11.5641L119.324 7.21727H119.355L120.913 11.5641H117.858ZM133.676 5.07382H130.244C129.503 5.07382 126.054 5.02835 126.054 8.35719C126.054 10.3332 127.309 11.0778 128.141 11.3362L125.616 15.7135H128.187L130.244 11.7615H131.529V15.7135H133.677L133.676 5.07382ZM131.529 10.0898H130.319C130.047 10.0898 128.323 10.0748 128.323 8.41764C128.323 7.83992 128.55 6.74546 130.304 6.74546H131.529V10.0898Z" fill="#FEFEFE"/>
<path d="M139.318 5.07439V15.7141H141.889L145.624 9.26928L146.35 7.65808H146.396L146.35 10.2273V15.7141H148.498V5.07439H145.927L142.221 11.5796L141.465 13.1304H141.42L141.465 10.5461V5.07439H139.318ZM150.615 5.07439V15.7141H152.762V11.1083H157.057V15.7141H159.205V5.07439H157.057V9.36075H152.762V5.07439H150.615ZM160.49 5.07439V6.95893H163.545V15.7141H165.693V6.95893H168.747V5.07439H160.49H160.49ZM170.033 5.07439V15.7141H176.355V13.8295H172.18V11.1089H175.976V9.36075H172.18V6.95947H176.355V5.07492H170.033V5.07439ZM178.169 5.07439V15.7141H180.316V6.95893H184.672V5.07439H178.169ZM185.881 5.07439V15.7141H188.029V11.7166H189.405C192.112 11.7166 193.08 9.80153 193.08 8.4027C193.08 7.73404 192.854 5.07385 189.012 5.07385H185.881V5.07439ZM188.029 10.0444V6.74603H189.012C190.252 6.74603 190.811 7.46069 190.811 8.34225C190.811 9.14785 190.312 10.0449 189.012 10.0449H188.029V10.0444ZM196.831 5.07439L192.612 15.7141H194.911L195.803 13.3128H200.174L201.066 15.7141H203.486L199.282 5.07439H196.832H196.831ZM196.483 11.5646L197.95 7.21783H197.98L199.538 11.5646H196.483ZM204.771 5.07439V15.7141H212.635V17.903H214.585V13.8295H213.36V5.07439H211.213V13.8295H206.918V5.07439H204.77H204.771ZM215.946 5.07439V15.7141H218.517L222.253 9.26928L222.979 7.65808H223.024L222.979 10.2273V15.7141H225.126V5.07439H222.555L218.85 11.5796L218.093 13.1304H218.048L218.093 10.5461V5.07439H215.946H215.946ZM234.775 5.07439H231.342C230.601 5.07439 227.153 5.02892 227.153 8.35776C227.153 10.3338 228.408 11.0784 229.24 11.3368L226.714 15.7141H229.285L231.342 11.762H232.627V15.7141H234.775V5.07439ZM232.627 10.0904H231.417C231.145 10.0904 229.421 10.0754 229.421 8.41821C229.421 7.84049 229.648 6.74603 231.402 6.74603H232.627V10.0899V10.0904Z" fill="#D19130"/>
<path d="M51.6511 27.0341V29.3707H50.9166V23.2907C51.1588 23.2907 51.4153 23.2875 51.6857 23.2816C51.9566 23.2762 52.2275 23.273 52.4979 23.273C53.2925 23.273 53.863 23.4522 54.209 23.8117C54.5608 24.1648 54.7359 24.6136 54.7359 25.1576C54.7359 25.6845 54.5459 26.1365 54.1659 26.5125C53.797 26.8832 53.2611 27.0683 52.558 27.0683C52.1892 27.0683 51.8869 27.0571 51.6506 27.0336L51.6511 27.0341ZM52.5671 23.9684C52.4633 23.9684 52.1578 23.9743 51.6511 23.9856V26.3307C52.0141 26.3596 52.3079 26.374 52.5325 26.374C52.9763 26.374 53.3244 26.2659 53.5783 26.0482C53.8316 25.831 53.9583 25.5315 53.9583 25.149C53.9583 24.7724 53.8417 24.482 53.6081 24.276C53.3744 24.0706 53.028 23.9679 52.5671 23.9679V23.9684ZM55.7977 26.3307C55.7977 25.4507 56.0888 24.7093 56.671 24.107C57.2528 23.5052 57.9899 23.2035 58.883 23.2035C59.7702 23.2035 60.5046 23.4961 61.0869 24.0808C61.6745 24.6654 61.9683 25.4154 61.9683 26.3301C61.9683 27.2219 61.6745 27.9691 61.0869 28.5715C60.4993 29.162 59.7649 29.4573 58.883 29.4573C58.0016 29.4573 57.2639 29.1647 56.671 28.58C56.0888 27.9954 55.7977 27.2454 55.7977 26.3301V26.3307ZM56.5758 26.3307C56.5758 27.0138 56.7977 27.5931 57.241 28.0681C57.6849 28.5314 58.2321 28.763 58.883 28.763C59.5626 28.763 60.1161 28.5314 60.5424 28.0681C60.9746 27.6049 61.1907 27.0255 61.1907 26.3307C61.1907 25.6363 60.9688 25.057 60.5254 24.5938C60.0815 24.1305 59.5344 23.8989 58.8835 23.8989C58.2214 23.8989 57.6711 24.1273 57.2331 24.5852C56.795 25.0426 56.5763 25.6246 56.5763 26.3307H56.5758ZM63.1072 26.3307C63.1072 25.4507 63.3984 24.7093 63.9801 24.107C64.5618 23.5052 65.2995 23.2035 66.192 23.2035C67.0792 23.2035 67.8137 23.4961 68.3959 24.0808C68.9835 24.6654 69.2778 25.4154 69.2778 26.3301C69.2778 27.2219 68.9841 27.9691 68.3959 28.5715C67.8084 29.162 67.0739 29.4573 66.192 29.4573C65.3106 29.4573 64.573 29.1647 63.9801 28.58C63.3978 27.9954 63.1072 27.2454 63.1072 26.3301V26.3307ZM63.8848 26.3307C63.8848 27.0138 64.1067 27.5931 64.5501 28.0681C64.994 28.5314 65.5411 28.763 66.192 28.763C66.8717 28.763 67.4252 28.5314 67.8515 28.0681C68.2836 27.6049 68.4997 27.0255 68.4997 26.3307C68.4997 25.6363 68.2778 25.057 67.8344 24.5938C67.3906 24.1305 66.8434 23.8989 66.1925 23.8989C65.5299 23.8989 64.9801 24.1273 64.5421 24.5852C64.1041 25.0426 63.8853 25.6246 63.8853 26.3307H63.8848ZM76.0248 28.702L75.5581 29.1101L73.9593 27.217V27.1823L75.5842 25.3063L76.0334 25.7059L74.7544 27.1999L76.0243 28.7031L76.0248 28.702ZM74.3829 28.702L73.9162 29.1101L72.3174 27.217V27.1823L73.9423 25.3063L74.3914 25.7059L73.1125 27.1999L74.3829 28.7031V28.702ZM77.216 26.3307C77.216 25.4507 77.5071 24.7093 78.0893 24.107C78.6711 23.5052 79.4082 23.2035 80.3013 23.2035C81.1885 23.2035 81.9235 23.4961 82.5052 24.0808C83.0928 24.6654 83.3866 25.4154 83.3866 26.3301C83.3866 27.2219 83.0928 27.9691 82.5052 28.5715C81.9176 29.162 81.1832 29.4573 80.3013 29.4573C79.4199 29.4573 78.6822 29.1647 78.0893 28.58C77.5071 27.9954 77.216 27.2454 77.216 26.3301V26.3307ZM77.9941 26.3307C77.9941 27.0138 78.216 27.5931 78.6594 28.0681C79.1032 28.5314 79.6504 28.763 80.3013 28.763C80.9809 28.763 81.5344 28.5314 81.9607 28.0681C82.3929 27.6049 82.609 27.0255 82.609 26.3307C82.609 25.6363 82.3871 25.057 81.9437 24.5938C81.4998 24.1305 80.9527 23.8989 80.3013 23.8989C79.6392 23.8989 79.0889 24.1273 78.6508 24.5852C78.2128 25.0426 77.9941 25.6246 77.9941 26.3307ZM87.7231 23.204L88.0946 23.7513C87.9563 23.9422 87.7897 24.0727 87.5933 24.1418C87.3799 24.2172 87.1382 24.2749 86.8673 24.3156C86.6028 24.3557 86.3516 24.4285 86.1158 24.5328C85.5282 24.8051 85.1999 25.4331 85.1307 26.4179H85.1477C85.2744 26.1456 85.4809 25.9252 85.7656 25.7578C86.0504 25.5898 86.3575 25.5058 86.6858 25.5058C87.2388 25.5058 87.6779 25.6823 88.0036 26.0359C88.3293 26.389 88.4917 26.8608 88.4917 27.4513C88.4917 28.0071 88.3043 28.4821 87.9302 28.8758C87.5613 29.2642 87.0834 29.4578 86.4958 29.4578C85.862 29.4578 85.3606 29.2407 84.9918 28.8068C84.6229 28.3784 84.4388 27.7846 84.4388 27.0261C84.4388 25.3352 84.9199 24.284 85.8822 23.8732C86.1009 23.7753 86.3548 23.7026 86.6427 23.656C86.8673 23.6154 87.0291 23.5838 87.1265 23.5603C87.2244 23.5373 87.3293 23.4966 87.4421 23.4389C87.5544 23.3811 87.6481 23.303 87.7226 23.204H87.7231ZM85.1738 27.1561C85.1738 27.6541 85.2946 28.0537 85.5368 28.3548C85.7789 28.656 86.0929 28.8068 86.4788 28.8068C86.8535 28.8068 87.1585 28.6795 87.3948 28.4244C87.6364 28.1756 87.7577 27.8627 87.7577 27.4866C87.7577 27.0871 87.647 26.7656 87.4251 26.5222C87.2032 26.2788 86.8993 26.1574 86.5134 26.1574C86.1621 26.1574 85.8683 26.2558 85.632 26.4526C85.384 26.6554 85.2313 26.8897 85.1738 27.1561ZM94.6868 29.3712H89.761V25.4625H90.4524V28.7196H91.8782V25.4625H92.5696V28.7196H93.9954V25.4625H94.6868V28.7196H95.3345V30.3266H94.6868V29.3712ZM99.4294 28.3982L99.6455 28.9454C99.2708 29.2872 98.7844 29.4578 98.1856 29.4578C97.5517 29.4578 97.0477 29.2722 96.673 28.9021C96.2925 28.5314 96.1025 28.036 96.1025 27.4166C96.1025 26.8319 96.2813 26.3451 96.6384 25.9573C96.9897 25.5689 97.4794 25.3753 98.1074 25.3753C98.6258 25.3753 99.0553 25.5433 99.3948 25.8792C99.7408 26.2092 99.9132 26.6377 99.9132 27.1646C99.9132 27.3326 99.8988 27.4888 99.8701 27.6337H96.8801C96.9088 27.9986 97.0456 28.2848 97.2909 28.4939C97.5358 28.702 97.8514 28.8063 98.2372 28.8063C98.7444 28.8063 99.1415 28.6699 99.43 28.3982H99.4294ZM98.0728 26.0274C97.7327 26.0274 97.4522 26.1226 97.2303 26.3141C97.0083 26.5051 96.8774 26.757 96.837 27.0694H99.1963C99.1787 26.7452 99.0712 26.4906 98.8722 26.305C98.6737 26.1194 98.407 26.0268 98.0728 26.0268V26.0274ZM104.069 28.3029L104.397 28.8068C104.063 29.2412 103.565 29.4578 102.902 29.4578C102.28 29.4578 101.776 29.2722 101.39 28.9021C101.01 28.5314 100.82 28.036 100.82 27.4166C100.82 26.8431 101.007 26.3596 101.382 25.9658C101.756 25.5721 102.226 25.3753 102.79 25.3753C103.47 25.3753 103.98 25.5459 104.32 25.8877L104 26.435C103.701 26.1627 103.329 26.0268 102.885 26.0268C102.522 26.0268 102.209 26.16 101.943 26.4264C101.684 26.6869 101.555 27.017 101.555 27.4166C101.555 27.8392 101.687 28.1751 101.952 28.4238C102.223 28.6785 102.557 28.8063 102.954 28.8063C103.404 28.8063 103.776 28.6383 104.069 28.3024L104.069 28.3029ZM106.452 26.1574H105.026V25.4625H108.569V26.1574H107.143V29.3712H106.452V26.1574ZM109.597 29.3712V25.4625C109.625 25.4625 109.666 25.4609 109.717 25.4582C109.769 25.4555 109.844 25.4523 109.942 25.4496C110.04 25.4464 110.129 25.4454 110.21 25.4454C110.636 25.4336 110.902 25.4277 111.005 25.4277C112.122 25.4277 112.681 25.7636 112.681 26.435C112.681 26.6666 112.609 26.8651 112.465 27.0298C112.321 27.1946 112.134 27.2946 111.903 27.3294V27.3465C112.508 27.4567 112.811 27.7637 112.811 28.2671C112.811 29.0256 112.214 29.4049 111.022 29.4049C110.964 29.4049 110.711 29.399 110.261 29.3872C110.175 29.3872 110.08 29.3862 109.976 29.383C109.872 29.3803 109.792 29.3776 109.734 29.3744C109.676 29.3717 109.63 29.3701 109.595 29.3701L109.597 29.3712ZM111.118 27.6166H110.288V28.8154C110.702 28.8325 110.968 28.8411 111.083 28.8411C111.746 28.8411 112.077 28.6325 112.077 28.2157C112.077 27.8162 111.757 27.6166 111.118 27.6166ZM111.057 25.9926C110.89 25.9926 110.633 26.0012 110.288 26.0183V27.1823H111.161C111.397 27.1823 111.587 27.1272 111.731 27.0175C111.875 26.9073 111.947 26.7597 111.947 26.5746C111.947 26.1862 111.65 25.9926 111.057 25.9926H111.057ZM114.451 28.8849C114.071 28.4912 113.881 28.0018 113.881 27.4171C113.881 26.8265 114.071 26.3403 114.451 25.9578C114.838 25.5695 115.339 25.3758 115.956 25.3758C116.572 25.3758 117.07 25.5695 117.451 25.9578C117.837 26.3398 118.03 26.8265 118.03 27.4171C118.03 28.0077 117.837 28.4971 117.451 28.8849C117.071 29.2669 116.572 29.4578 115.956 29.4578C115.345 29.4578 114.843 29.2669 114.451 28.8849ZM114.996 26.4184C114.743 26.673 114.615 27.0057 114.615 27.4171C114.615 27.8279 114.739 28.1612 114.987 28.4158C115.24 28.6763 115.563 28.8068 115.955 28.8068C116.347 28.8068 116.668 28.6779 116.918 28.4201C117.169 28.1623 117.294 27.8279 117.294 27.4171C117.294 27.0175 117.167 26.6848 116.914 26.4184C116.666 26.1579 116.347 26.0274 115.955 26.0274C115.563 26.0274 115.243 26.1574 114.995 26.4184H114.996ZM122.53 29.4584C122.236 29.4584 121.925 29.4092 121.597 29.3107C121.279 29.207 121.055 29.0791 120.922 28.9288L121.277 28.4072C121.432 28.5346 121.618 28.6378 121.834 28.7154C122.05 28.7935 122.247 28.8325 122.426 28.8325C122.725 28.8325 122.97 28.7731 123.16 28.6549C123.35 28.5362 123.446 28.381 123.446 28.1901C123.446 28.028 123.378 27.9033 123.242 27.8162C123.107 27.7295 122.921 27.6862 122.685 27.6862H122.028V27.1218H122.642C122.838 27.1218 122.999 27.0678 123.126 26.9608C123.252 26.8538 123.316 26.7217 123.316 26.5655C123.316 26.3922 123.241 26.2542 123.091 26.1531C122.941 26.0514 122.74 26.0012 122.486 26.0012C122.077 26.0012 121.689 26.1456 121.32 26.4355L121.052 25.8968C121.208 25.7348 121.425 25.6074 121.705 25.5144C121.984 25.4218 122.279 25.3758 122.59 25.3758C123.051 25.3758 123.41 25.4684 123.666 25.6535C123.922 25.8385 124.051 26.0964 124.051 26.4264C124.051 26.8779 123.823 27.1849 123.368 27.347V27.3647C123.621 27.3936 123.82 27.4931 123.964 27.6642C124.108 27.8349 124.18 28.0419 124.18 28.2853C124.18 28.6442 124.029 28.9293 123.727 29.1406C123.424 29.3519 123.025 29.4578 122.53 29.4578V29.4584ZM125.717 26.2884L125.536 25.7326C125.921 25.4951 126.354 25.3764 126.832 25.3764C127.356 25.3764 127.736 25.5063 127.972 25.7669C128.208 26.0274 128.327 26.4296 128.327 26.9742V29.3712H127.67V28.8673C127.364 29.2439 126.95 29.4322 126.425 29.4322C126.068 29.4322 125.78 29.3236 125.561 29.1064C125.342 28.8892 125.233 28.5955 125.233 28.2248C125.233 27.8429 125.368 27.5401 125.639 27.3171C125.91 27.094 126.264 26.9827 126.702 26.9827C127.111 26.9827 127.434 27.0667 127.67 27.2347C127.67 26.7944 127.61 26.4794 127.488 26.2879C127.367 26.0969 127.134 26.0012 126.788 26.0012C126.437 26.0012 126.08 26.0964 125.717 26.2879V26.2884ZM126.668 28.8074C127.053 28.8074 127.388 28.6394 127.67 28.3035V27.8081C127.428 27.6348 127.137 27.5476 126.797 27.5476C126.561 27.5476 126.363 27.6043 126.205 27.7172C126.046 27.8301 125.967 27.9879 125.967 28.1906C125.967 28.3816 126.029 28.5324 126.153 28.6421C126.276 28.7523 126.448 28.8074 126.667 28.8074H126.668ZM134.686 29.3717H129.76V25.463H130.451V28.7202H131.877V25.463H132.568V28.7202H133.994V25.463H134.686V28.7202H135.333V30.3271H134.686V29.3717ZM139.298 26.4623L137.052 29.3717H136.36V25.463H137.052V28.3725L139.298 25.463H139.99V29.3717H139.298V26.4623ZM142.451 26.1584H141.025V25.4636H144.568V26.1584H143.143V29.3723H142.451V26.1584ZM146.848 29.3723H145.596V25.4636H146.287V26.6361H146.926C147.456 26.6361 147.845 26.7559 148.093 26.9967C148.34 27.2368 148.464 27.5658 148.464 27.9825C148.464 28.3762 148.334 28.7063 148.076 28.9727C147.828 29.2391 147.419 29.3723 146.848 29.3723ZM149.899 29.3723H149.208V25.4636H149.899V29.3723ZM146.797 27.2877H146.287V28.7207H146.788C147.117 28.7207 147.356 28.6629 147.506 28.5474C147.655 28.4319 147.73 28.2521 147.73 28.0087C147.73 27.5284 147.42 27.2882 146.797 27.2882L146.797 27.2877ZM156.863 29.3723H156.171V26.1151H154.054V29.3723H153.363V25.4636H156.863V29.3723ZM159.082 31.1092H158.391V25.4636H159.082V25.9241C159.221 25.762 159.411 25.6305 159.652 25.5293C159.894 25.4282 160.145 25.3774 160.404 25.3774C160.957 25.3774 161.392 25.5625 161.709 25.9332C162.038 26.298 162.202 26.7725 162.202 27.3572C162.202 27.9536 162.015 28.4549 161.641 28.8603C161.272 29.2599 160.785 29.4594 160.18 29.4594C159.713 29.4594 159.348 29.3696 159.083 29.1898V31.1092H159.082ZM160.206 26.0284C159.744 26.0284 159.37 26.2076 159.082 26.5666V28.5035C159.388 28.7063 159.733 28.8074 160.119 28.8074C160.528 28.8074 160.855 28.6758 161.1 28.4121C161.345 28.1483 161.467 27.806 161.467 27.3829C161.467 26.9715 161.355 26.6431 161.13 26.397C160.905 26.1509 160.597 26.0279 160.205 26.0279L160.206 26.0284ZM163.678 26.2889L163.497 25.7332C163.883 25.4956 164.315 25.3769 164.793 25.3769C165.317 25.3769 165.697 25.5069 165.934 25.7674C166.17 26.0279 166.288 26.4302 166.288 26.9747V29.3717H165.631V28.8678C165.326 29.2444 164.911 29.4327 164.387 29.4327C164.03 29.4327 163.741 29.3241 163.523 29.1069C163.304 28.8898 163.194 28.5961 163.194 28.2254C163.194 27.8434 163.329 27.5407 163.6 27.3176C163.871 27.0945 164.226 26.9833 164.664 26.9833C165.072 26.9833 165.395 27.0673 165.631 27.2352C165.631 26.795 165.571 26.4799 165.45 26.2884C165.329 26.0974 165.095 26.0017 164.75 26.0017C164.399 26.0017 164.041 26.0969 163.678 26.2884V26.2889ZM164.629 28.8079C165.015 28.8079 165.349 28.6399 165.631 28.304V27.8087C165.389 27.6354 165.098 27.5482 164.758 27.5482C164.522 27.5482 164.325 27.6049 164.167 27.7177C164.008 27.8306 163.929 27.9884 163.929 28.1911C163.929 28.3821 163.99 28.533 164.114 28.6426C164.238 28.7528 164.41 28.8079 164.629 28.8079H164.629ZM167.721 29.3723V25.4636C167.75 25.4636 167.79 25.4619 167.842 25.4593C167.894 25.4566 167.969 25.4534 168.067 25.4507C168.165 25.4475 168.254 25.4464 168.334 25.4464C168.761 25.4347 169.026 25.4288 169.13 25.4288C170.247 25.4288 170.806 25.7647 170.806 26.436C170.806 26.6677 170.734 26.8661 170.59 27.0309C170.446 27.1956 170.259 27.2957 170.028 27.3304V27.3476C170.633 27.4578 170.935 27.7648 170.935 28.2682C170.935 29.0267 170.339 29.406 169.147 29.406C169.089 29.406 168.836 29.4001 168.386 29.3883C168.3 29.3883 168.205 29.3872 168.101 29.384C167.997 29.3813 167.917 29.3787 167.859 29.3755C167.801 29.3728 167.755 29.3712 167.72 29.3712L167.721 29.3723ZM169.242 27.6177H168.413V28.8165C168.827 28.8336 169.092 28.8421 169.208 28.8421C169.87 28.8421 170.202 28.6335 170.202 28.2168C170.202 27.8172 169.882 27.6177 169.242 27.6177ZM169.182 25.9937C169.015 25.9937 168.758 26.0022 168.413 26.0193V27.1833H169.285C169.522 27.1833 169.712 27.1282 169.856 27.0186C170 26.9084 170.072 26.7607 170.072 26.5757C170.072 26.1873 169.776 25.9937 169.182 25.9937H169.182ZM177.71 29.3723H177.018V26.1151H174.901V29.3723H174.21V25.4636H177.71V29.3723ZM179.548 28.886C179.168 28.4923 178.978 28.0028 178.978 27.4182C178.978 26.8276 179.168 26.3414 179.548 25.9589C179.935 25.5705 180.436 25.3769 181.052 25.3769C181.669 25.3769 182.167 25.5705 182.547 25.9589C182.934 26.3408 183.127 26.8276 183.127 27.4182C183.127 28.0087 182.933 28.4982 182.547 28.886C182.167 29.2679 181.669 29.4589 181.052 29.4589C180.441 29.4589 179.94 29.2679 179.548 28.886ZM180.093 26.4195C179.839 26.6741 179.712 27.0068 179.712 27.4182C179.712 27.829 179.836 28.1623 180.084 28.4169C180.338 28.6774 180.66 28.8079 181.052 28.8079C181.444 28.8079 181.765 28.679 182.016 28.4212C182.266 28.1633 182.392 27.829 182.392 27.4182C182.392 27.0186 182.265 26.6859 182.011 26.4195C181.764 26.159 181.444 26.0284 181.052 26.0284C180.661 26.0284 180.341 26.1584 180.093 26.4195ZM185.172 26.159H183.747V25.4641H187.29V26.159H185.864V29.3728H185.172V26.159ZM189.008 31.1097H188.317V25.4641H189.008V25.9247C189.146 25.7626 189.336 25.631 189.578 25.5299C189.82 25.4288 190.071 25.378 190.33 25.378C190.883 25.378 191.318 25.563 191.635 25.9338C191.964 26.2986 192.128 26.7731 192.128 27.3577C192.128 27.9542 191.941 28.4554 191.566 28.8609C191.197 29.2605 190.71 29.46 190.106 29.46C189.639 29.46 189.273 29.3701 189.008 29.1904V31.1097ZM190.132 26.029C189.671 26.029 189.296 26.2082 189.008 26.5671V28.5041C189.314 28.7068 189.659 28.8079 190.045 28.8079C190.454 28.8079 190.781 28.6763 191.026 28.4126C191.271 28.1489 191.393 27.8065 191.393 27.3834C191.393 26.972 191.281 26.6436 191.056 26.3975C190.831 26.1515 190.523 26.0284 190.131 26.0284L190.132 26.029ZM196.465 28.3998L196.681 28.947C196.306 29.2888 195.82 29.4594 195.22 29.4594C194.586 29.4594 194.082 29.2738 193.708 28.9037C193.328 28.533 193.137 28.0376 193.137 27.4182C193.137 26.8335 193.316 26.3467 193.673 25.9589C194.024 25.5705 194.514 25.3769 195.142 25.3769C195.66 25.3769 196.09 25.5449 196.429 25.8808C196.775 26.2108 196.948 26.6393 196.948 27.1662C196.948 27.3342 196.933 27.4904 196.905 27.6354H193.915C193.943 28.0002 194.08 28.2864 194.326 28.4955C194.57 28.7036 194.886 28.8079 195.272 28.8079C195.779 28.8079 196.176 28.6715 196.465 28.3998ZM195.108 26.029C194.768 26.029 194.487 26.1242 194.265 26.3157C194.044 26.5067 193.913 26.7586 193.873 27.071H196.232C196.214 26.7468 196.107 26.4922 195.908 26.3066C195.709 26.121 195.443 26.0284 195.108 26.0284L195.108 26.029ZM201.173 23.2062L201.545 23.7534C201.406 23.9444 201.239 24.0749 201.043 24.1439C200.83 24.2193 200.588 24.2771 200.317 24.3177C200.052 24.3579 199.802 24.4306 199.566 24.5349C198.978 24.8072 198.65 25.4352 198.581 26.42H198.598C198.724 26.1477 198.93 25.9273 199.216 25.7599C199.5 25.5919 199.807 25.508 200.136 25.508C200.689 25.508 201.128 25.6845 201.454 26.0381C201.779 26.3911 201.942 26.8629 201.942 27.4535C201.942 28.0093 201.754 28.4843 201.38 28.878C201.011 29.2663 200.533 29.46 199.946 29.46C199.312 29.46 198.811 29.2428 198.442 28.809C198.074 28.3805 197.889 27.7867 197.889 27.0282C197.889 25.3373 198.37 24.2862 199.332 23.8754C199.551 23.7775 199.805 23.7047 200.093 23.6582C200.317 23.6175 200.479 23.586 200.577 23.5624C200.675 23.5394 200.78 23.4988 200.893 23.441C201.005 23.3832 201.099 23.3051 201.173 23.2062H201.173ZM198.623 27.1582C198.623 27.6562 198.744 28.0558 198.986 28.357C199.228 28.6581 199.542 28.809 199.928 28.809C200.303 28.809 200.608 28.6817 200.844 28.4265C201.086 28.1778 201.207 27.8648 201.207 27.4888C201.207 27.0892 201.097 26.7677 200.875 26.5243C200.653 26.2809 200.349 26.1595 199.963 26.1595C199.611 26.1595 199.317 26.2579 199.082 26.4548C198.834 26.6575 198.681 26.8918 198.623 27.1582ZM206.148 26.4633L203.902 29.3728H203.211V25.4641H203.902V28.3735L206.148 25.4641H206.84V29.3728H206.148V26.4633ZM209.301 26.1595H207.875V25.4646H211.419V26.1595H209.993V29.3733H209.301V26.1595ZM215.384 28.4003L215.6 28.9475C215.225 29.2893 214.739 29.46 214.139 29.46C213.505 29.46 213.001 29.2744 212.627 28.9042C212.247 28.5335 212.056 28.0382 212.056 27.4187C212.056 26.834 212.235 26.3473 212.592 25.9594C212.943 25.5711 213.433 25.3774 214.061 25.3774C214.579 25.3774 215.009 25.5454 215.348 25.8813C215.694 26.2114 215.867 26.6399 215.867 27.1668C215.867 27.3347 215.852 27.4909 215.824 27.6359H212.834C212.862 28.0007 212.999 28.2869 213.245 28.496C213.489 28.7041 213.805 28.8084 214.191 28.8084C214.698 28.8084 215.095 28.672 215.384 28.4003ZM214.027 26.0295C213.687 26.0295 213.406 26.1247 213.184 26.3162C212.963 26.5072 212.832 26.7591 212.792 27.0715H215.151C215.133 26.7474 215.026 26.4928 214.827 26.3071C214.628 26.1215 214.362 26.029 214.027 26.029L214.027 26.0295ZM220.282 29.3733H219.59V26.1595H218.225L218.182 26.8196C218.136 27.3577 218.068 27.8055 217.979 28.1612C217.889 28.5174 217.774 28.7838 217.633 28.9604C217.492 29.1369 217.344 29.2583 217.188 29.3252C217.033 29.3915 216.842 29.4247 216.618 29.4247L216.566 28.7475C216.63 28.7533 216.695 28.7432 216.765 28.717C216.834 28.6913 216.91 28.6346 216.994 28.5479C217.077 28.4613 217.152 28.3452 217.218 28.2002C217.285 28.0558 217.345 27.8515 217.4 27.5877C217.454 27.324 217.49 27.0218 217.508 26.68L217.577 25.4641H220.282V29.3728V29.3733ZM224.869 28.4003L225.085 28.9475C224.71 29.2893 224.224 29.46 223.625 29.46C222.991 29.46 222.487 29.2744 222.112 28.9042C221.732 28.5335 221.542 28.0382 221.542 27.4187C221.542 26.834 221.721 26.3473 222.078 25.9594C222.429 25.5711 222.919 25.3774 223.547 25.3774C224.065 25.3774 224.495 25.5454 224.834 25.8813C225.18 26.2114 225.353 26.6399 225.353 27.1668C225.353 27.3347 225.338 27.4909 225.31 27.6359H222.32C222.348 28.0007 222.485 28.2869 222.73 28.496C222.975 28.7041 223.291 28.8084 223.677 28.8084C224.184 28.8084 224.581 28.672 224.869 28.4003H224.869ZM223.512 26.0295C223.172 26.0295 222.892 26.1247 222.67 26.3162C222.448 26.5072 222.317 26.7591 222.276 27.0715H224.636C224.618 26.7474 224.511 26.4928 224.312 26.3071C224.113 26.1215 223.846 26.029 223.512 26.029V26.0295ZM229.508 26.4639L227.261 29.3733H226.57V25.4646H227.261V28.3741L229.508 25.4646H230.199V29.3733H229.508V26.4639ZM227.123 23.4672H227.771C227.806 23.9246 228.027 24.1535 228.436 24.1535C228.823 24.1535 229.032 23.9246 229.067 23.4672H229.715C229.715 23.8203 229.596 24.1113 229.357 24.3402C229.118 24.5692 228.811 24.6836 228.436 24.6836C228.027 24.6836 227.706 24.5724 227.473 24.3493C227.239 24.1262 227.122 23.832 227.122 23.4677L227.123 23.4672ZM235.296 27.1844V27.2192L233.697 29.1123L233.231 28.7041L234.501 27.201L233.222 25.7069L233.671 25.3074L235.296 27.1833V27.1844ZM233.654 27.1844V27.2192L232.055 29.1123L231.589 28.7041L232.859 27.201L231.58 25.7069L232.03 25.3074L233.654 27.1833V27.1844Z" fill="#FEFEFE"/>
</g>
<defs>
<clipPath id="clip0">
<rect width="235" height="36" fill="white"/>
</clipPath>
</defs>
</svg>
