<svg width="40" height="40" viewBox="0 0 40 40" fill="none" xmlns="http://www.w3.org/2000/svg">
<g clip-path="url(#clip0)">
<path d="M23.6723 13.5139L29.2047 9.79403C29.9383 9.30074 30.8379 9.11909 31.7054 9.28904C32.573 9.45899 33.3375 9.96662 33.8308 10.7003C34.3241 11.4339 34.5057 12.3334 34.3358 13.201C34.1658 14.0686 33.6582 14.8331 32.9246 15.3264L27.3922 19.0463L28.3697 32.4478L24.2205 35.2377L20.4768 23.6961L14.9445 27.416L14.0382 32.0422L9.88899 34.8321L8.93526 27.4398L2.44919 23.7674L6.59845 20.9775L11.2246 21.8837L16.7569 18.1638L7.48091 10.3422L11.6302 7.55223L23.6723 13.5139Z" stroke="#D19130" stroke-width="3.33" stroke-linecap="round" stroke-linejoin="round"/>
</g>
<defs>
<clipPath id="clip0">
<rect width="40" height="40" fill="white"/>
</clipPath>
</defs>
</svg>
