<svg width="40" height="40" viewBox="0 0 40 40" fill="none" xmlns="http://www.w3.org/2000/svg">
<path fill-rule="evenodd" clip-rule="evenodd" d="M38.4628 22.2169C39.036 23.7331 38.2715 25.4268 36.7553 26L12.0479 35.3404C10.5317 35.9136 8.83795 35.1492 8.26477 33.633L6.64996 29.3615L7.18541 28.7059C8.17406 27.4956 8.45906 25.8472 7.89657 24.3593C7.33409 22.8715 6.02991 21.8239 4.48783 21.5702L3.65264 21.4329L2.03782 17.1613C1.46465 15.6452 2.2291 13.9514 3.74527 13.3783L28.4527 4.03783C29.9689 3.46465 31.6627 4.2291 32.2358 5.74528L33.8506 10.0168L33.3152 10.6723C32.3265 11.8827 32.0415 13.531 32.604 15.0189C33.1665 16.5068 34.4707 17.5544 36.0128 17.808L36.848 17.9454L38.4628 22.2169ZM29.8588 16.0568C29.0283 13.8598 29.3078 11.4494 30.5282 9.52766L29.4906 6.78312L21.2548 9.89661C21.5413 10.6547 21.1591 11.5015 20.401 11.7881C19.643 12.0747 18.7961 11.6925 18.5095 10.9344L4.78317 16.1235L5.82072 18.8681C8.00724 19.5019 9.8114 21.1246 10.6419 23.3215C11.4724 25.5185 11.193 27.9289 9.97257 29.8506L11.0101 32.5952L24.7365 27.4061L24.7364 27.406C24.4499 26.6479 24.8321 25.8011 25.5902 25.5145C26.3483 25.2279 27.1951 25.6101 27.4817 26.3682L27.4817 26.3682L35.7176 23.2548L34.68 20.5102C32.4935 19.8764 30.6894 18.2537 29.8588 16.0568ZM25.0712 24.1418C25.8293 23.8553 26.2115 23.0084 25.9249 22.2503C25.6383 21.4922 24.7915 21.11 24.0334 21.3966C23.2753 21.6832 22.8931 22.53 23.1797 23.2881C23.4663 24.0462 24.3131 24.4284 25.0712 24.1418ZM24.3682 18.1323C24.6548 18.8904 24.2726 19.7373 23.5145 20.0239C22.7564 20.3105 21.9095 19.9283 21.6229 19.1702C21.3364 18.4121 21.7186 17.5652 22.4767 17.2786C23.2347 16.992 24.0816 17.3743 24.3682 18.1323ZM21.9578 15.906C22.7158 15.6194 23.0981 14.7725 22.8115 14.0144C22.5249 13.2564 21.678 12.8741 20.9199 13.1607C20.1619 13.4473 19.7796 14.2942 20.0662 15.0523C20.3528 15.8104 21.1997 16.1926 21.9578 15.906Z" fill="#D19130"/>
</svg>
